<mxfile host="app.diagrams.net" agent="Mozilla/5.0 (Macintosh; Intel Mac OS X 10_15_7) AppleWebKit/537.36 (KHTML, like Gecko) Chrome/131.0.0.0 Safari/537.36" version="26.0.6" pages="2">
  <diagram name="page 1" id="AD0j8ZVl492zKQFY-U34">
    <mxGraphModel dx="2648" dy="1360" grid="0" gridSize="10" guides="0" tooltips="0" connect="1" arrows="0" fold="1" page="0" pageScale="1" pageWidth="850" pageHeight="1100" background="#353535" math="0" shadow="0">
      <root>
        <mxCell id="0" />
        <mxCell id="1" parent="0" />
        <mxCell id="KwvHy2sCxvJyN4Rjaf8G-24" value="" style="rounded=1;whiteSpace=wrap;html=1;arcSize=3;strokeWidth=3;fillColor=#333333;fontColor=#333333;" parent="1" vertex="1">
          <mxGeometry x="-416" y="200" width="762" height="756" as="geometry" />
        </mxCell>
        <mxCell id="KwvHy2sCxvJyN4Rjaf8G-25" value="" style="rounded=1;whiteSpace=wrap;html=1;aspect=fixed;strokeWidth=2;fillColor=#999999;strokeColor=default;" parent="1" vertex="1">
          <mxGeometry x="-377" y="238" width="65" height="65" as="geometry" />
        </mxCell>
        <mxCell id="KwvHy2sCxvJyN4Rjaf8G-27" value="" style="rounded=1;whiteSpace=wrap;html=1;aspect=fixed;strokeWidth=2;fillColor=#999999;strokeColor=default;" parent="1" vertex="1">
          <mxGeometry x="-289" y="238" width="65" height="65" as="geometry" />
        </mxCell>
        <mxCell id="KwvHy2sCxvJyN4Rjaf8G-28" value="" style="rounded=1;whiteSpace=wrap;html=1;aspect=fixed;strokeWidth=2;fillColor=#999999;strokeColor=default;" parent="1" vertex="1">
          <mxGeometry x="-201" y="238" width="65" height="65" as="geometry" />
        </mxCell>
        <mxCell id="KwvHy2sCxvJyN4Rjaf8G-29" value="" style="rounded=1;whiteSpace=wrap;html=1;aspect=fixed;strokeWidth=2;fillColor=#999999;strokeColor=default;" parent="1" vertex="1">
          <mxGeometry x="-113" y="238" width="65" height="65" as="geometry" />
        </mxCell>
        <mxCell id="KwvHy2sCxvJyN4Rjaf8G-30" value="" style="rounded=1;whiteSpace=wrap;html=1;aspect=fixed;strokeWidth=2;fillColor=#999999;strokeColor=default;" parent="1" vertex="1">
          <mxGeometry x="-24" y="238" width="65" height="65" as="geometry" />
        </mxCell>
        <mxCell id="KwvHy2sCxvJyN4Rjaf8G-31" value="" style="rounded=1;whiteSpace=wrap;html=1;aspect=fixed;strokeWidth=2;fillColor=#4D4D4D;strokeColor=default;" parent="1" vertex="1">
          <mxGeometry x="64" y="238" width="65" height="65" as="geometry" />
        </mxCell>
        <mxCell id="KwvHy2sCxvJyN4Rjaf8G-32" value="" style="rounded=1;whiteSpace=wrap;html=1;aspect=fixed;strokeWidth=2;fillColor=#4D4D4D;strokeColor=default;" parent="1" vertex="1">
          <mxGeometry x="152" y="238" width="65" height="65" as="geometry" />
        </mxCell>
        <mxCell id="KwvHy2sCxvJyN4Rjaf8G-33" value="" style="rounded=1;whiteSpace=wrap;html=1;aspect=fixed;strokeWidth=2;fillColor=#4D4D4D;strokeColor=default;" parent="1" vertex="1">
          <mxGeometry x="240" y="238" width="65" height="65" as="geometry" />
        </mxCell>
        <mxCell id="KwvHy2sCxvJyN4Rjaf8G-42" value="" style="rounded=1;whiteSpace=wrap;html=1;aspect=fixed;strokeWidth=2;fillColor=#999999;strokeColor=default;" parent="1" vertex="1">
          <mxGeometry x="-377" y="326" width="65" height="65" as="geometry" />
        </mxCell>
        <mxCell id="KwvHy2sCxvJyN4Rjaf8G-43" value="" style="rounded=1;whiteSpace=wrap;html=1;aspect=fixed;strokeWidth=2;fillColor=#999999;strokeColor=default;" parent="1" vertex="1">
          <mxGeometry x="-288" y="326" width="65" height="65" as="geometry" />
        </mxCell>
        <mxCell id="KwvHy2sCxvJyN4Rjaf8G-44" value="" style="rounded=1;whiteSpace=wrap;html=1;aspect=fixed;strokeWidth=2;fillColor=#999999;strokeColor=default;" parent="1" vertex="1">
          <mxGeometry x="-200" y="326" width="65" height="65" as="geometry" />
        </mxCell>
        <mxCell id="KwvHy2sCxvJyN4Rjaf8G-45" value="" style="rounded=1;whiteSpace=wrap;html=1;aspect=fixed;strokeWidth=2;fillColor=#999999;strokeColor=default;" parent="1" vertex="1">
          <mxGeometry x="-112" y="326" width="65" height="65" as="geometry" />
        </mxCell>
        <mxCell id="KwvHy2sCxvJyN4Rjaf8G-46" value="" style="rounded=1;whiteSpace=wrap;html=1;aspect=fixed;strokeWidth=2;fillColor=#4D4D4D;strokeColor=default;" parent="1" vertex="1">
          <mxGeometry x="-24" y="326" width="65" height="65" as="geometry" />
        </mxCell>
        <mxCell id="KwvHy2sCxvJyN4Rjaf8G-47" value="" style="rounded=1;whiteSpace=wrap;html=1;aspect=fixed;strokeWidth=2;fillColor=#4D4D4D;strokeColor=default;" parent="1" vertex="1">
          <mxGeometry x="64" y="326" width="65" height="65" as="geometry" />
        </mxCell>
        <mxCell id="KwvHy2sCxvJyN4Rjaf8G-48" value="" style="rounded=1;whiteSpace=wrap;html=1;aspect=fixed;strokeWidth=2;fillColor=#4D4D4D;strokeColor=default;" parent="1" vertex="1">
          <mxGeometry x="152" y="326" width="65" height="65" as="geometry" />
        </mxCell>
        <mxCell id="KwvHy2sCxvJyN4Rjaf8G-49" value="" style="rounded=1;whiteSpace=wrap;html=1;aspect=fixed;strokeWidth=2;fillColor=#4D4D4D;strokeColor=default;" parent="1" vertex="1">
          <mxGeometry x="240" y="326" width="65" height="65" as="geometry" />
        </mxCell>
        <mxCell id="KwvHy2sCxvJyN4Rjaf8G-58" value="" style="rounded=1;whiteSpace=wrap;html=1;aspect=fixed;strokeWidth=2;fillColor=#999999;strokeColor=default;" parent="1" vertex="1">
          <mxGeometry x="-377" y="413" width="65" height="65" as="geometry" />
        </mxCell>
        <mxCell id="KwvHy2sCxvJyN4Rjaf8G-59" value="" style="rounded=1;whiteSpace=wrap;html=1;aspect=fixed;strokeWidth=2;fillColor=#999999;strokeColor=default;" parent="1" vertex="1">
          <mxGeometry x="-289" y="413" width="65" height="65" as="geometry" />
        </mxCell>
        <mxCell id="KwvHy2sCxvJyN4Rjaf8G-60" value="" style="rounded=1;whiteSpace=wrap;html=1;aspect=fixed;strokeWidth=2;fillColor=#999999;strokeColor=default;" parent="1" vertex="1">
          <mxGeometry x="-201" y="413" width="65" height="65" as="geometry" />
        </mxCell>
        <mxCell id="KwvHy2sCxvJyN4Rjaf8G-61" value="" style="rounded=1;whiteSpace=wrap;html=1;aspect=fixed;strokeWidth=2;fillColor=#999999;strokeColor=default;" parent="1" vertex="1">
          <mxGeometry x="-113" y="413" width="65" height="65" as="geometry" />
        </mxCell>
        <mxCell id="KwvHy2sCxvJyN4Rjaf8G-62" value="" style="rounded=1;whiteSpace=wrap;html=1;aspect=fixed;strokeWidth=2;fillColor=#999999;strokeColor=default;" parent="1" vertex="1">
          <mxGeometry x="-24" y="413" width="65" height="65" as="geometry" />
        </mxCell>
        <mxCell id="KwvHy2sCxvJyN4Rjaf8G-63" value="" style="rounded=1;whiteSpace=wrap;html=1;aspect=fixed;strokeWidth=2;fillColor=#4D4D4D;strokeColor=default;" parent="1" vertex="1">
          <mxGeometry x="64" y="413" width="65" height="65" as="geometry" />
        </mxCell>
        <mxCell id="KwvHy2sCxvJyN4Rjaf8G-64" value="" style="rounded=1;whiteSpace=wrap;html=1;aspect=fixed;strokeWidth=2;fillColor=#4D4D4D;strokeColor=default;" parent="1" vertex="1">
          <mxGeometry x="152" y="413" width="65" height="65" as="geometry" />
        </mxCell>
        <mxCell id="KwvHy2sCxvJyN4Rjaf8G-65" value="" style="rounded=1;whiteSpace=wrap;html=1;aspect=fixed;strokeWidth=2;fillColor=#4D4D4D;strokeColor=default;" parent="1" vertex="1">
          <mxGeometry x="240" y="413" width="65" height="65" as="geometry" />
        </mxCell>
        <mxCell id="KwvHy2sCxvJyN4Rjaf8G-74" value="" style="rounded=1;whiteSpace=wrap;html=1;aspect=fixed;strokeWidth=2;fillColor=#999999;strokeColor=default;" parent="1" vertex="1">
          <mxGeometry x="-377" y="501" width="65" height="65" as="geometry" />
        </mxCell>
        <mxCell id="KwvHy2sCxvJyN4Rjaf8G-75" value="" style="rounded=1;whiteSpace=wrap;html=1;aspect=fixed;strokeWidth=2;fillColor=#999999;strokeColor=default;" parent="1" vertex="1">
          <mxGeometry x="-289" y="501" width="65" height="65" as="geometry" />
        </mxCell>
        <mxCell id="KwvHy2sCxvJyN4Rjaf8G-76" value="" style="rounded=1;whiteSpace=wrap;html=1;aspect=fixed;strokeWidth=2;fillColor=#999999;strokeColor=default;" parent="1" vertex="1">
          <mxGeometry x="-201" y="501" width="65" height="65" as="geometry" />
        </mxCell>
        <mxCell id="KwvHy2sCxvJyN4Rjaf8G-77" value="" style="rounded=1;whiteSpace=wrap;html=1;aspect=fixed;strokeWidth=2;fillColor=#999999;strokeColor=default;" parent="1" vertex="1">
          <mxGeometry x="-113" y="501" width="65" height="65" as="geometry" />
        </mxCell>
        <mxCell id="KwvHy2sCxvJyN4Rjaf8G-78" value="" style="rounded=1;whiteSpace=wrap;html=1;aspect=fixed;strokeWidth=2;fillColor=#999999;strokeColor=default;" parent="1" vertex="1">
          <mxGeometry x="-24" y="501" width="65" height="65" as="geometry" />
        </mxCell>
        <mxCell id="KwvHy2sCxvJyN4Rjaf8G-79" value="" style="rounded=1;whiteSpace=wrap;html=1;aspect=fixed;strokeWidth=2;fillColor=#999999;strokeColor=default;" parent="1" vertex="1">
          <mxGeometry x="64" y="501" width="65" height="65" as="geometry" />
        </mxCell>
        <mxCell id="KwvHy2sCxvJyN4Rjaf8G-80" value="" style="rounded=1;whiteSpace=wrap;html=1;aspect=fixed;strokeWidth=2;fillColor=#999999;strokeColor=default;" parent="1" vertex="1">
          <mxGeometry x="152" y="501" width="65" height="65" as="geometry" />
        </mxCell>
        <mxCell id="KwvHy2sCxvJyN4Rjaf8G-81" value="" style="rounded=1;whiteSpace=wrap;html=1;aspect=fixed;strokeWidth=2;fillColor=#4D4D4D;strokeColor=default;" parent="1" vertex="1">
          <mxGeometry x="240" y="501" width="65" height="65" as="geometry" />
        </mxCell>
        <mxCell id="KwvHy2sCxvJyN4Rjaf8G-90" value="" style="rounded=1;whiteSpace=wrap;html=1;aspect=fixed;strokeWidth=2;fillColor=#333333;strokeColor=default;" parent="1" vertex="1">
          <mxGeometry x="-377" y="589" width="65" height="65" as="geometry" />
        </mxCell>
        <mxCell id="KwvHy2sCxvJyN4Rjaf8G-91" value="" style="rounded=1;whiteSpace=wrap;html=1;aspect=fixed;strokeWidth=2;fillColor=#333333;strokeColor=default;" parent="1" vertex="1">
          <mxGeometry x="-289" y="589" width="65" height="65" as="geometry" />
        </mxCell>
        <mxCell id="KwvHy2sCxvJyN4Rjaf8G-92" value="" style="rounded=1;whiteSpace=wrap;html=1;aspect=fixed;strokeWidth=2;fillColor=#333333;strokeColor=default;" parent="1" vertex="1">
          <mxGeometry x="-201" y="589" width="65" height="65" as="geometry" />
        </mxCell>
        <mxCell id="KwvHy2sCxvJyN4Rjaf8G-93" value="" style="rounded=1;whiteSpace=wrap;html=1;aspect=fixed;strokeWidth=2;fillColor=#333333;strokeColor=default;" parent="1" vertex="1">
          <mxGeometry x="-113" y="589" width="65" height="65" as="geometry" />
        </mxCell>
        <mxCell id="KwvHy2sCxvJyN4Rjaf8G-94" value="" style="rounded=1;whiteSpace=wrap;html=1;aspect=fixed;strokeWidth=2;fillColor=#B3B3B3;strokeColor=default;" parent="1" vertex="1">
          <mxGeometry x="-24" y="589" width="65" height="65" as="geometry" />
        </mxCell>
        <mxCell id="KwvHy2sCxvJyN4Rjaf8G-95" value="" style="rounded=1;whiteSpace=wrap;html=1;aspect=fixed;strokeWidth=2;fillColor=#333333;strokeColor=default;" parent="1" vertex="1">
          <mxGeometry x="64" y="589" width="65" height="65" as="geometry" />
        </mxCell>
        <mxCell id="KwvHy2sCxvJyN4Rjaf8G-96" value="" style="rounded=1;whiteSpace=wrap;html=1;aspect=fixed;strokeWidth=2;fillColor=#333333;strokeColor=default;" parent="1" vertex="1">
          <mxGeometry x="152" y="589" width="65" height="65" as="geometry" />
        </mxCell>
        <mxCell id="KwvHy2sCxvJyN4Rjaf8G-97" value="" style="rounded=1;whiteSpace=wrap;html=1;aspect=fixed;strokeWidth=2;fillColor=#333333;strokeColor=default;" parent="1" vertex="1">
          <mxGeometry x="240" y="589" width="65" height="65" as="geometry" />
        </mxCell>
        <mxCell id="KwvHy2sCxvJyN4Rjaf8G-106" value="" style="rounded=1;whiteSpace=wrap;html=1;aspect=fixed;strokeWidth=2;fillColor=#333333;strokeColor=default;" parent="1" vertex="1">
          <mxGeometry x="-377" y="677" width="65" height="65" as="geometry" />
        </mxCell>
        <mxCell id="KwvHy2sCxvJyN4Rjaf8G-107" value="" style="rounded=1;whiteSpace=wrap;html=1;aspect=fixed;strokeWidth=2;fillColor=#333333;strokeColor=default;" parent="1" vertex="1">
          <mxGeometry x="-288" y="677" width="65" height="65" as="geometry" />
        </mxCell>
        <mxCell id="KwvHy2sCxvJyN4Rjaf8G-108" value="" style="rounded=1;whiteSpace=wrap;html=1;aspect=fixed;strokeWidth=2;fillColor=#B3B3B3;strokeColor=default;" parent="1" vertex="1">
          <mxGeometry x="-200" y="677" width="65" height="65" as="geometry" />
        </mxCell>
        <mxCell id="KwvHy2sCxvJyN4Rjaf8G-109" value="" style="rounded=1;whiteSpace=wrap;html=1;aspect=fixed;strokeWidth=2;fillColor=#B3B3B3;strokeColor=default;" parent="1" vertex="1">
          <mxGeometry x="-112" y="677" width="65" height="65" as="geometry" />
        </mxCell>
        <mxCell id="KwvHy2sCxvJyN4Rjaf8G-110" value="" style="rounded=1;whiteSpace=wrap;html=1;aspect=fixed;strokeWidth=2;fillColor=#333333;strokeColor=default;" parent="1" vertex="1">
          <mxGeometry x="-24" y="677" width="65" height="65" as="geometry" />
        </mxCell>
        <mxCell id="KwvHy2sCxvJyN4Rjaf8G-111" value="" style="rounded=1;whiteSpace=wrap;html=1;aspect=fixed;strokeWidth=2;fillColor=#333333;strokeColor=default;" parent="1" vertex="1">
          <mxGeometry x="64" y="677" width="65" height="65" as="geometry" />
        </mxCell>
        <mxCell id="KwvHy2sCxvJyN4Rjaf8G-112" value="" style="rounded=1;whiteSpace=wrap;html=1;aspect=fixed;strokeWidth=2;fillColor=#333333;strokeColor=default;" parent="1" vertex="1">
          <mxGeometry x="152" y="677" width="65" height="65" as="geometry" />
        </mxCell>
        <mxCell id="KwvHy2sCxvJyN4Rjaf8G-113" value="" style="rounded=1;whiteSpace=wrap;html=1;aspect=fixed;strokeWidth=2;fillColor=#333333;strokeColor=default;" parent="1" vertex="1">
          <mxGeometry x="240" y="677" width="65" height="65" as="geometry" />
        </mxCell>
        <mxCell id="KwvHy2sCxvJyN4Rjaf8G-122" value="" style="rounded=1;whiteSpace=wrap;html=1;aspect=fixed;strokeWidth=2;fillColor=#333333;strokeColor=default;" parent="1" vertex="1">
          <mxGeometry x="-377" y="764" width="65" height="65" as="geometry" />
        </mxCell>
        <mxCell id="KwvHy2sCxvJyN4Rjaf8G-123" value="" style="rounded=1;whiteSpace=wrap;html=1;aspect=fixed;strokeWidth=2;fillColor=#333333;strokeColor=default;" parent="1" vertex="1">
          <mxGeometry x="-289" y="764" width="65" height="65" as="geometry" />
        </mxCell>
        <mxCell id="KwvHy2sCxvJyN4Rjaf8G-124" value="" style="rounded=1;whiteSpace=wrap;html=1;aspect=fixed;strokeWidth=2;fillColor=#333333;strokeColor=default;" parent="1" vertex="1">
          <mxGeometry x="-201" y="764" width="65" height="65" as="geometry" />
        </mxCell>
        <mxCell id="KwvHy2sCxvJyN4Rjaf8G-125" value="" style="rounded=1;whiteSpace=wrap;html=1;aspect=fixed;strokeWidth=2;fillColor=#333333;strokeColor=default;" parent="1" vertex="1">
          <mxGeometry x="-113" y="764" width="65" height="65" as="geometry" />
        </mxCell>
        <mxCell id="KwvHy2sCxvJyN4Rjaf8G-126" value="" style="rounded=1;whiteSpace=wrap;html=1;aspect=fixed;strokeWidth=2;fillColor=#B3B3B3;strokeColor=default;" parent="1" vertex="1">
          <mxGeometry x="-24" y="764" width="65" height="65" as="geometry" />
        </mxCell>
        <mxCell id="KwvHy2sCxvJyN4Rjaf8G-127" value="" style="rounded=1;whiteSpace=wrap;html=1;aspect=fixed;strokeWidth=2;fillColor=#B3B3B3;strokeColor=default;" parent="1" vertex="1">
          <mxGeometry x="64" y="764" width="65" height="65" as="geometry" />
        </mxCell>
        <mxCell id="KwvHy2sCxvJyN4Rjaf8G-128" value="" style="rounded=1;whiteSpace=wrap;html=1;aspect=fixed;strokeWidth=2;fillColor=#333333;strokeColor=default;" parent="1" vertex="1">
          <mxGeometry x="152" y="764" width="65" height="65" as="geometry" />
        </mxCell>
        <mxCell id="KwvHy2sCxvJyN4Rjaf8G-129" value="" style="rounded=1;whiteSpace=wrap;html=1;aspect=fixed;strokeWidth=2;fillColor=#333333;strokeColor=default;" parent="1" vertex="1">
          <mxGeometry x="240" y="764" width="65" height="65" as="geometry" />
        </mxCell>
        <mxCell id="KwvHy2sCxvJyN4Rjaf8G-138" value="" style="rounded=1;whiteSpace=wrap;html=1;aspect=fixed;strokeWidth=2;fillColor=#333333;strokeColor=default;" parent="1" vertex="1">
          <mxGeometry x="-377" y="852" width="65" height="65" as="geometry" />
        </mxCell>
        <mxCell id="KwvHy2sCxvJyN4Rjaf8G-139" value="" style="rounded=1;whiteSpace=wrap;html=1;aspect=fixed;strokeWidth=2;fillColor=#B3B3B3;strokeColor=default;" parent="1" vertex="1">
          <mxGeometry x="-289" y="852" width="65" height="65" as="geometry" />
        </mxCell>
        <mxCell id="KwvHy2sCxvJyN4Rjaf8G-140" value="" style="rounded=1;whiteSpace=wrap;html=1;aspect=fixed;strokeWidth=2;fillColor=#B3B3B3;strokeColor=default;" parent="1" vertex="1">
          <mxGeometry x="-201" y="852" width="65" height="65" as="geometry" />
        </mxCell>
        <mxCell id="KwvHy2sCxvJyN4Rjaf8G-141" value="" style="rounded=1;whiteSpace=wrap;html=1;aspect=fixed;strokeWidth=2;fillColor=#B3B3B3;strokeColor=default;" parent="1" vertex="1">
          <mxGeometry x="-113" y="852" width="65" height="65" as="geometry" />
        </mxCell>
        <mxCell id="KwvHy2sCxvJyN4Rjaf8G-142" value="" style="rounded=1;whiteSpace=wrap;html=1;aspect=fixed;strokeWidth=2;fillColor=#333333;strokeColor=default;" parent="1" vertex="1">
          <mxGeometry x="-24" y="852" width="65" height="65" as="geometry" />
        </mxCell>
        <mxCell id="KwvHy2sCxvJyN4Rjaf8G-143" value="" style="rounded=1;whiteSpace=wrap;html=1;aspect=fixed;strokeWidth=2;fillColor=#333333;strokeColor=default;" parent="1" vertex="1">
          <mxGeometry x="64" y="852" width="65" height="65" as="geometry" />
        </mxCell>
        <mxCell id="KwvHy2sCxvJyN4Rjaf8G-144" value="" style="rounded=1;whiteSpace=wrap;html=1;aspect=fixed;strokeWidth=2;fillColor=#333333;strokeColor=default;" parent="1" vertex="1">
          <mxGeometry x="152" y="852" width="65" height="65" as="geometry" />
        </mxCell>
        <mxCell id="KwvHy2sCxvJyN4Rjaf8G-145" value="" style="rounded=1;whiteSpace=wrap;html=1;aspect=fixed;strokeWidth=2;fillColor=#333333;strokeColor=default;" parent="1" vertex="1">
          <mxGeometry x="240" y="852" width="65" height="65" as="geometry" />
        </mxCell>
        <mxCell id="ZywGPytzfWBgbfW9GCtc-2" value="dot level" style="text;html=1;align=right;verticalAlign=middle;whiteSpace=wrap;rounded=0;fontSize=30;fontFamily=Roboto Mono;fontSource=https%3A%2F%2Ffonts.googleapis.com%2Fcss%3Ffamily%3DRoboto%2BMono;fontColor=#FFFFFF;strokeWidth=2;" parent="1" vertex="1">
          <mxGeometry x="493" y="371" width="169" height="48" as="geometry" />
        </mxCell>
        <mxCell id="ZywGPytzfWBgbfW9GCtc-3" value="" style="endArrow=classic;html=1;rounded=0;strokeWidth=4;strokeColor=#FFFFFF;fontColor=#FFFFFF;" parent="1" edge="1">
          <mxGeometry width="50" height="50" relative="1" as="geometry">
            <mxPoint x="488" y="401" as="sourcePoint" />
            <mxPoint x="376" y="401" as="targetPoint" />
          </mxGeometry>
        </mxCell>
        <mxCell id="ZywGPytzfWBgbfW9GCtc-5" value="dot pan" style="text;html=1;align=right;verticalAlign=middle;whiteSpace=wrap;rounded=0;fontSize=30;fontFamily=Roboto Mono;fontSource=https%3A%2F%2Ffonts.googleapis.com%2Fcss%3Ffamily%3DRoboto%2BMono;fontColor=#FFFFFF;strokeWidth=2;" parent="1" vertex="1">
          <mxGeometry x="485" y="696" width="140" height="92" as="geometry" />
        </mxCell>
        <mxCell id="RWmdS6DIOnOpvIPjL7Qo-1" value="" style="endArrow=none;html=1;rounded=0;strokeWidth=2;strokeColor=#FFFFFF;fontColor=#FFFFFF;" parent="1" edge="1">
          <mxGeometry width="50" height="50" relative="1" as="geometry">
            <mxPoint x="371" y="569" as="sourcePoint" />
            <mxPoint x="371" y="230" as="targetPoint" />
          </mxGeometry>
        </mxCell>
        <mxCell id="RWmdS6DIOnOpvIPjL7Qo-2" value="" style="endArrow=none;html=1;rounded=0;strokeWidth=2;strokeColor=#FFFFFF;fontColor=#FFFFFF;" parent="1" edge="1">
          <mxGeometry width="50" height="50" relative="1" as="geometry">
            <mxPoint x="371" y="925" as="sourcePoint" />
            <mxPoint x="371" y="586" as="targetPoint" />
          </mxGeometry>
        </mxCell>
        <mxCell id="--Gpbwa46gxwDVzGV0nx-1" value="" style="endArrow=classic;html=1;rounded=0;strokeWidth=4;strokeColor=#FFFFFF;fontColor=#FFFFFF;" parent="1" edge="1">
          <mxGeometry width="50" height="50" relative="1" as="geometry">
            <mxPoint x="490" y="745" as="sourcePoint" />
            <mxPoint x="378" y="745" as="targetPoint" />
          </mxGeometry>
        </mxCell>
      </root>
    </mxGraphModel>
  </diagram>
  <diagram name="page 2" id="gaQ04MUTe80Fo_M5m1-W">
    <mxGraphModel dx="2248" dy="1360" grid="0" gridSize="10" guides="0" tooltips="0" connect="1" arrows="0" fold="1" page="0" pageScale="1" pageWidth="850" pageHeight="1100" background="#353535" math="0" shadow="0">
      <root>
        <mxCell id="d-ivkL9qn1JHW6eDKfx6-0" />
        <mxCell id="d-ivkL9qn1JHW6eDKfx6-1" parent="d-ivkL9qn1JHW6eDKfx6-0" />
        <mxCell id="d-ivkL9qn1JHW6eDKfx6-2" value="" style="rounded=1;whiteSpace=wrap;html=1;arcSize=3;strokeWidth=3;fillColor=#333333;fontColor=#333333;" parent="d-ivkL9qn1JHW6eDKfx6-1" vertex="1">
          <mxGeometry x="292" y="200" width="758" height="756" as="geometry" />
        </mxCell>
        <mxCell id="d-ivkL9qn1JHW6eDKfx6-11" value="" style="rounded=1;whiteSpace=wrap;html=1;aspect=fixed;strokeWidth=2;fillColor=#333333;strokeColor=default;fontColor=#4D4D4D;" parent="d-ivkL9qn1JHW6eDKfx6-1" vertex="1">
          <mxGeometry x="328" y="238" width="65" height="65" as="geometry" />
        </mxCell>
        <mxCell id="d-ivkL9qn1JHW6eDKfx6-12" value="" style="rounded=1;whiteSpace=wrap;html=1;aspect=fixed;strokeWidth=2;fillColor=#333333;strokeColor=default;fontColor=#4D4D4D;" parent="d-ivkL9qn1JHW6eDKfx6-1" vertex="1">
          <mxGeometry x="416" y="238" width="65" height="65" as="geometry" />
        </mxCell>
        <mxCell id="d-ivkL9qn1JHW6eDKfx6-13" value="" style="rounded=1;whiteSpace=wrap;html=1;aspect=fixed;strokeWidth=2;fillColor=#333333;strokeColor=default;fontColor=#4D4D4D;" parent="d-ivkL9qn1JHW6eDKfx6-1" vertex="1">
          <mxGeometry x="504" y="238" width="65" height="65" as="geometry" />
        </mxCell>
        <mxCell id="d-ivkL9qn1JHW6eDKfx6-14" value="" style="rounded=1;whiteSpace=wrap;html=1;aspect=fixed;strokeWidth=2;fillColor=#333333;strokeColor=default;fontColor=#4D4D4D;" parent="d-ivkL9qn1JHW6eDKfx6-1" vertex="1">
          <mxGeometry x="592" y="238" width="65" height="65" as="geometry" />
        </mxCell>
        <mxCell id="d-ivkL9qn1JHW6eDKfx6-15" value="" style="rounded=1;whiteSpace=wrap;html=1;aspect=fixed;strokeWidth=2;fillColor=#333333;strokeColor=default;fontColor=#4D4D4D;" parent="d-ivkL9qn1JHW6eDKfx6-1" vertex="1">
          <mxGeometry x="681" y="238" width="65" height="65" as="geometry" />
        </mxCell>
        <mxCell id="d-ivkL9qn1JHW6eDKfx6-16" value="" style="rounded=1;whiteSpace=wrap;html=1;aspect=fixed;strokeWidth=2;fillColor=#999999;strokeColor=default;fontColor=#4D4D4D;" parent="d-ivkL9qn1JHW6eDKfx6-1" vertex="1">
          <mxGeometry x="769" y="238" width="65" height="65" as="geometry" />
        </mxCell>
        <mxCell id="d-ivkL9qn1JHW6eDKfx6-17" value="" style="rounded=1;whiteSpace=wrap;html=1;aspect=fixed;strokeWidth=2;fillColor=#333333;strokeColor=default;fontColor=#4D4D4D;" parent="d-ivkL9qn1JHW6eDKfx6-1" vertex="1">
          <mxGeometry x="857" y="238" width="65" height="65" as="geometry" />
        </mxCell>
        <mxCell id="d-ivkL9qn1JHW6eDKfx6-18" value="" style="rounded=1;whiteSpace=wrap;html=1;aspect=fixed;strokeWidth=2;fillColor=#333333;strokeColor=default;fontColor=#4D4D4D;" parent="d-ivkL9qn1JHW6eDKfx6-1" vertex="1">
          <mxGeometry x="945" y="238" width="65" height="65" as="geometry" />
        </mxCell>
        <mxCell id="d-ivkL9qn1JHW6eDKfx6-27" value="" style="rounded=1;whiteSpace=wrap;html=1;aspect=fixed;strokeWidth=2;fillColor=#333333;strokeColor=default;fontColor=#4D4D4D;" parent="d-ivkL9qn1JHW6eDKfx6-1" vertex="1">
          <mxGeometry x="329" y="326" width="65" height="65" as="geometry" />
        </mxCell>
        <mxCell id="d-ivkL9qn1JHW6eDKfx6-28" value="" style="rounded=1;whiteSpace=wrap;html=1;aspect=fixed;strokeWidth=2;fillColor=#333333;strokeColor=default;fontColor=#4D4D4D;" parent="d-ivkL9qn1JHW6eDKfx6-1" vertex="1">
          <mxGeometry x="417" y="326" width="65" height="65" as="geometry" />
        </mxCell>
        <mxCell id="d-ivkL9qn1JHW6eDKfx6-29" value="" style="rounded=1;whiteSpace=wrap;html=1;aspect=fixed;strokeWidth=2;fillColor=#333333;strokeColor=default;fontColor=#4D4D4D;" parent="d-ivkL9qn1JHW6eDKfx6-1" vertex="1">
          <mxGeometry x="505" y="326" width="65" height="65" as="geometry" />
        </mxCell>
        <mxCell id="d-ivkL9qn1JHW6eDKfx6-30" value="" style="rounded=1;whiteSpace=wrap;html=1;aspect=fixed;strokeWidth=2;fillColor=#333333;strokeColor=default;fontColor=#4D4D4D;" parent="d-ivkL9qn1JHW6eDKfx6-1" vertex="1">
          <mxGeometry x="593" y="326" width="65" height="65" as="geometry" />
        </mxCell>
        <mxCell id="d-ivkL9qn1JHW6eDKfx6-31" value="" style="rounded=1;whiteSpace=wrap;html=1;aspect=fixed;strokeWidth=2;fillColor=#999999;strokeColor=default;fontColor=#4D4D4D;" parent="d-ivkL9qn1JHW6eDKfx6-1" vertex="1">
          <mxGeometry x="681" y="326" width="65" height="65" as="geometry" />
        </mxCell>
        <mxCell id="d-ivkL9qn1JHW6eDKfx6-32" value="" style="rounded=1;whiteSpace=wrap;html=1;aspect=fixed;strokeWidth=2;fillColor=#333333;strokeColor=default;fontColor=#4D4D4D;" parent="d-ivkL9qn1JHW6eDKfx6-1" vertex="1">
          <mxGeometry x="769" y="326" width="65" height="65" as="geometry" />
        </mxCell>
        <mxCell id="d-ivkL9qn1JHW6eDKfx6-33" value="" style="rounded=1;whiteSpace=wrap;html=1;aspect=fixed;strokeWidth=2;fillColor=#333333;strokeColor=default;fontColor=#4D4D4D;" parent="d-ivkL9qn1JHW6eDKfx6-1" vertex="1">
          <mxGeometry x="857" y="326" width="65" height="65" as="geometry" />
        </mxCell>
        <mxCell id="d-ivkL9qn1JHW6eDKfx6-34" value="" style="rounded=1;whiteSpace=wrap;html=1;aspect=fixed;strokeWidth=2;fillColor=#333333;strokeColor=default;fontColor=#4D4D4D;" parent="d-ivkL9qn1JHW6eDKfx6-1" vertex="1">
          <mxGeometry x="945" y="326" width="65" height="65" as="geometry" />
        </mxCell>
        <mxCell id="d-ivkL9qn1JHW6eDKfx6-43" value="" style="rounded=1;whiteSpace=wrap;html=1;aspect=fixed;strokeWidth=2;fillColor=#333333;strokeColor=default;" parent="d-ivkL9qn1JHW6eDKfx6-1" vertex="1">
          <mxGeometry x="328" y="413" width="65" height="65" as="geometry" />
        </mxCell>
        <mxCell id="d-ivkL9qn1JHW6eDKfx6-44" value="" style="rounded=1;whiteSpace=wrap;html=1;aspect=fixed;strokeWidth=2;fillColor=#333333;strokeColor=default;" parent="d-ivkL9qn1JHW6eDKfx6-1" vertex="1">
          <mxGeometry x="416" y="413" width="65" height="65" as="geometry" />
        </mxCell>
        <mxCell id="d-ivkL9qn1JHW6eDKfx6-45" value="" style="rounded=1;whiteSpace=wrap;html=1;aspect=fixed;strokeWidth=2;fillColor=#333333;strokeColor=default;" parent="d-ivkL9qn1JHW6eDKfx6-1" vertex="1">
          <mxGeometry x="504" y="413" width="65" height="65" as="geometry" />
        </mxCell>
        <mxCell id="d-ivkL9qn1JHW6eDKfx6-46" value="" style="rounded=1;whiteSpace=wrap;html=1;aspect=fixed;strokeWidth=2;fillColor=#333333;strokeColor=default;" parent="d-ivkL9qn1JHW6eDKfx6-1" vertex="1">
          <mxGeometry x="592" y="413" width="65" height="65" as="geometry" />
        </mxCell>
        <mxCell id="d-ivkL9qn1JHW6eDKfx6-47" value="" style="rounded=1;whiteSpace=wrap;html=1;aspect=fixed;strokeWidth=2;fillColor=#333333;strokeColor=default;" parent="d-ivkL9qn1JHW6eDKfx6-1" vertex="1">
          <mxGeometry x="681" y="413" width="65" height="65" as="geometry" />
        </mxCell>
        <mxCell id="d-ivkL9qn1JHW6eDKfx6-48" value="" style="rounded=1;whiteSpace=wrap;html=1;aspect=fixed;strokeWidth=2;fillColor=#999999;strokeColor=default;" parent="d-ivkL9qn1JHW6eDKfx6-1" vertex="1">
          <mxGeometry x="769" y="413" width="65" height="65" as="geometry" />
        </mxCell>
        <mxCell id="d-ivkL9qn1JHW6eDKfx6-49" value="" style="rounded=1;whiteSpace=wrap;html=1;aspect=fixed;strokeWidth=2;fillColor=#333333;strokeColor=default;" parent="d-ivkL9qn1JHW6eDKfx6-1" vertex="1">
          <mxGeometry x="857" y="413" width="65" height="65" as="geometry" />
        </mxCell>
        <mxCell id="d-ivkL9qn1JHW6eDKfx6-50" value="" style="rounded=1;whiteSpace=wrap;html=1;aspect=fixed;strokeWidth=2;fillColor=#333333;strokeColor=default;" parent="d-ivkL9qn1JHW6eDKfx6-1" vertex="1">
          <mxGeometry x="945" y="413" width="65" height="65" as="geometry" />
        </mxCell>
        <mxCell id="d-ivkL9qn1JHW6eDKfx6-59" value="" style="rounded=1;whiteSpace=wrap;html=1;aspect=fixed;strokeWidth=2;fillColor=#333333;strokeColor=default;" parent="d-ivkL9qn1JHW6eDKfx6-1" vertex="1">
          <mxGeometry x="328" y="501" width="65" height="65" as="geometry" />
        </mxCell>
        <mxCell id="d-ivkL9qn1JHW6eDKfx6-60" value="" style="rounded=1;whiteSpace=wrap;html=1;aspect=fixed;strokeWidth=2;fillColor=#333333;strokeColor=default;" parent="d-ivkL9qn1JHW6eDKfx6-1" vertex="1">
          <mxGeometry x="416" y="501" width="65" height="65" as="geometry" />
        </mxCell>
        <mxCell id="d-ivkL9qn1JHW6eDKfx6-61" value="" style="rounded=1;whiteSpace=wrap;html=1;aspect=fixed;strokeWidth=2;fillColor=#999999;strokeColor=default;" parent="d-ivkL9qn1JHW6eDKfx6-1" vertex="1">
          <mxGeometry x="504" y="501" width="65" height="65" as="geometry" />
        </mxCell>
        <mxCell id="d-ivkL9qn1JHW6eDKfx6-62" value="" style="rounded=1;whiteSpace=wrap;html=1;aspect=fixed;strokeWidth=2;fillColor=#333333;strokeColor=default;" parent="d-ivkL9qn1JHW6eDKfx6-1" vertex="1">
          <mxGeometry x="592" y="501" width="65" height="65" as="geometry" />
        </mxCell>
        <mxCell id="d-ivkL9qn1JHW6eDKfx6-63" value="" style="rounded=1;whiteSpace=wrap;html=1;aspect=fixed;strokeWidth=2;fillColor=#333333;strokeColor=default;" parent="d-ivkL9qn1JHW6eDKfx6-1" vertex="1">
          <mxGeometry x="681" y="501" width="65" height="65" as="geometry" />
        </mxCell>
        <mxCell id="d-ivkL9qn1JHW6eDKfx6-64" value="" style="rounded=1;whiteSpace=wrap;html=1;aspect=fixed;strokeWidth=2;fillColor=#333333;strokeColor=default;" parent="d-ivkL9qn1JHW6eDKfx6-1" vertex="1">
          <mxGeometry x="769" y="501" width="65" height="65" as="geometry" />
        </mxCell>
        <mxCell id="d-ivkL9qn1JHW6eDKfx6-65" value="" style="rounded=1;whiteSpace=wrap;html=1;aspect=fixed;strokeWidth=2;fillColor=#333333;strokeColor=default;" parent="d-ivkL9qn1JHW6eDKfx6-1" vertex="1">
          <mxGeometry x="857" y="501" width="65" height="65" as="geometry" />
        </mxCell>
        <mxCell id="d-ivkL9qn1JHW6eDKfx6-66" value="" style="rounded=1;whiteSpace=wrap;html=1;aspect=fixed;strokeWidth=2;fillColor=#333333;strokeColor=default;" parent="d-ivkL9qn1JHW6eDKfx6-1" vertex="1">
          <mxGeometry x="945" y="501" width="65" height="65" as="geometry" />
        </mxCell>
        <mxCell id="xm85_uk3ZG2Ry9QY57MM-5" value="dot move time" style="text;html=1;align=right;verticalAlign=middle;whiteSpace=wrap;rounded=0;fontSize=30;fontFamily=Roboto Mono;fontSource=https%3A%2F%2Ffonts.googleapis.com%2Fcss%3Ffamily%3DRoboto%2BMono;fontColor=#FFFFFF;strokeWidth=2;" parent="d-ivkL9qn1JHW6eDKfx6-1" vertex="1">
          <mxGeometry x="-90" y="372" width="240" height="62" as="geometry" />
        </mxCell>
        <mxCell id="OhhcCXmK_54rwxiTTY_5-0" value="" style="rounded=1;whiteSpace=wrap;html=1;aspect=fixed;strokeWidth=2;fillColor=#333333;strokeColor=default;" parent="d-ivkL9qn1JHW6eDKfx6-1" vertex="1">
          <mxGeometry x="327" y="587" width="65" height="65" as="geometry" />
        </mxCell>
        <mxCell id="OhhcCXmK_54rwxiTTY_5-1" value="" style="rounded=1;whiteSpace=wrap;html=1;aspect=fixed;strokeWidth=2;fillColor=#B3B3B3;strokeColor=default;" parent="d-ivkL9qn1JHW6eDKfx6-1" vertex="1">
          <mxGeometry x="415" y="587" width="65" height="65" as="geometry" />
        </mxCell>
        <mxCell id="OhhcCXmK_54rwxiTTY_5-2" value="" style="rounded=1;whiteSpace=wrap;html=1;aspect=fixed;strokeWidth=2;fillColor=#333333;strokeColor=default;" parent="d-ivkL9qn1JHW6eDKfx6-1" vertex="1">
          <mxGeometry x="503" y="587" width="65" height="65" as="geometry" />
        </mxCell>
        <mxCell id="OhhcCXmK_54rwxiTTY_5-3" value="" style="rounded=1;whiteSpace=wrap;html=1;aspect=fixed;strokeWidth=2;fillColor=#333333;strokeColor=default;" parent="d-ivkL9qn1JHW6eDKfx6-1" vertex="1">
          <mxGeometry x="591" y="587" width="65" height="65" as="geometry" />
        </mxCell>
        <mxCell id="OhhcCXmK_54rwxiTTY_5-4" value="" style="rounded=1;whiteSpace=wrap;html=1;aspect=fixed;strokeWidth=2;fillColor=#333333;strokeColor=default;" parent="d-ivkL9qn1JHW6eDKfx6-1" vertex="1">
          <mxGeometry x="680" y="587" width="65" height="65" as="geometry" />
        </mxCell>
        <mxCell id="OhhcCXmK_54rwxiTTY_5-5" value="" style="rounded=1;whiteSpace=wrap;html=1;aspect=fixed;strokeWidth=2;fillColor=#333333;strokeColor=default;" parent="d-ivkL9qn1JHW6eDKfx6-1" vertex="1">
          <mxGeometry x="768" y="587" width="65" height="65" as="geometry" />
        </mxCell>
        <mxCell id="OhhcCXmK_54rwxiTTY_5-6" value="" style="rounded=1;whiteSpace=wrap;html=1;aspect=fixed;strokeWidth=2;fillColor=#333333;strokeColor=default;" parent="d-ivkL9qn1JHW6eDKfx6-1" vertex="1">
          <mxGeometry x="856" y="587" width="65" height="65" as="geometry" />
        </mxCell>
        <mxCell id="OhhcCXmK_54rwxiTTY_5-7" value="" style="rounded=1;whiteSpace=wrap;html=1;aspect=fixed;strokeWidth=2;fillColor=#333333;strokeColor=default;" parent="d-ivkL9qn1JHW6eDKfx6-1" vertex="1">
          <mxGeometry x="944" y="587" width="65" height="65" as="geometry" />
        </mxCell>
        <mxCell id="OhhcCXmK_54rwxiTTY_5-8" value="" style="rounded=1;whiteSpace=wrap;html=1;aspect=fixed;strokeWidth=2;fillColor=#333333;strokeColor=default;" parent="d-ivkL9qn1JHW6eDKfx6-1" vertex="1">
          <mxGeometry x="327" y="675" width="65" height="65" as="geometry" />
        </mxCell>
        <mxCell id="OhhcCXmK_54rwxiTTY_5-9" value="" style="rounded=1;whiteSpace=wrap;html=1;aspect=fixed;strokeWidth=2;fillColor=#4D4D4D;strokeColor=default;" parent="d-ivkL9qn1JHW6eDKfx6-1" vertex="1">
          <mxGeometry x="416" y="675" width="65" height="65" as="geometry" />
        </mxCell>
        <mxCell id="OhhcCXmK_54rwxiTTY_5-10" value="" style="rounded=1;whiteSpace=wrap;html=1;aspect=fixed;strokeWidth=2;fillColor=#B3B3B3;strokeColor=default;" parent="d-ivkL9qn1JHW6eDKfx6-1" vertex="1">
          <mxGeometry x="504" y="675" width="65" height="65" as="geometry" />
        </mxCell>
        <mxCell id="OhhcCXmK_54rwxiTTY_5-11" value="" style="rounded=1;whiteSpace=wrap;html=1;aspect=fixed;strokeWidth=2;fillColor=#333333;strokeColor=default;" parent="d-ivkL9qn1JHW6eDKfx6-1" vertex="1">
          <mxGeometry x="592" y="675" width="65" height="65" as="geometry" />
        </mxCell>
        <mxCell id="OhhcCXmK_54rwxiTTY_5-12" value="" style="rounded=1;whiteSpace=wrap;html=1;aspect=fixed;strokeWidth=2;fillColor=#333333;strokeColor=default;" parent="d-ivkL9qn1JHW6eDKfx6-1" vertex="1">
          <mxGeometry x="680" y="675" width="65" height="65" as="geometry" />
        </mxCell>
        <mxCell id="OhhcCXmK_54rwxiTTY_5-13" value="" style="rounded=1;whiteSpace=wrap;html=1;aspect=fixed;strokeWidth=2;fillColor=#333333;strokeColor=default;" parent="d-ivkL9qn1JHW6eDKfx6-1" vertex="1">
          <mxGeometry x="768" y="675" width="65" height="65" as="geometry" />
        </mxCell>
        <mxCell id="OhhcCXmK_54rwxiTTY_5-14" value="" style="rounded=1;whiteSpace=wrap;html=1;aspect=fixed;strokeWidth=2;fillColor=#333333;strokeColor=default;" parent="d-ivkL9qn1JHW6eDKfx6-1" vertex="1">
          <mxGeometry x="856" y="675" width="65" height="65" as="geometry" />
        </mxCell>
        <mxCell id="OhhcCXmK_54rwxiTTY_5-15" value="" style="rounded=1;whiteSpace=wrap;html=1;aspect=fixed;strokeWidth=2;fillColor=#333333;strokeColor=default;" parent="d-ivkL9qn1JHW6eDKfx6-1" vertex="1">
          <mxGeometry x="944" y="675" width="65" height="65" as="geometry" />
        </mxCell>
        <mxCell id="OhhcCXmK_54rwxiTTY_5-16" value="" style="rounded=1;whiteSpace=wrap;html=1;aspect=fixed;strokeWidth=2;fillColor=#333333;strokeColor=default;" parent="d-ivkL9qn1JHW6eDKfx6-1" vertex="1">
          <mxGeometry x="327" y="762" width="65" height="65" as="geometry" />
        </mxCell>
        <mxCell id="OhhcCXmK_54rwxiTTY_5-17" value="" style="rounded=1;whiteSpace=wrap;html=1;aspect=fixed;strokeWidth=2;fillColor=#333333;strokeColor=default;" parent="d-ivkL9qn1JHW6eDKfx6-1" vertex="1">
          <mxGeometry x="415" y="762" width="65" height="65" as="geometry" />
        </mxCell>
        <mxCell id="OhhcCXmK_54rwxiTTY_5-18" value="" style="rounded=1;whiteSpace=wrap;html=1;aspect=fixed;strokeWidth=2;fillColor=#333333;strokeColor=default;" parent="d-ivkL9qn1JHW6eDKfx6-1" vertex="1">
          <mxGeometry x="503" y="762" width="65" height="65" as="geometry" />
        </mxCell>
        <mxCell id="OhhcCXmK_54rwxiTTY_5-19" value="" style="rounded=1;whiteSpace=wrap;html=1;aspect=fixed;strokeWidth=2;fillColor=#333333;strokeColor=default;" parent="d-ivkL9qn1JHW6eDKfx6-1" vertex="1">
          <mxGeometry x="591" y="762" width="65" height="65" as="geometry" />
        </mxCell>
        <mxCell id="OhhcCXmK_54rwxiTTY_5-20" value="" style="rounded=1;whiteSpace=wrap;html=1;aspect=fixed;strokeWidth=2;fillColor=#333333;strokeColor=default;" parent="d-ivkL9qn1JHW6eDKfx6-1" vertex="1">
          <mxGeometry x="680" y="762" width="65" height="65" as="geometry" />
        </mxCell>
        <mxCell id="OhhcCXmK_54rwxiTTY_5-21" value="" style="rounded=1;whiteSpace=wrap;html=1;aspect=fixed;strokeWidth=2;fillColor=#B3B3B3;strokeColor=default;" parent="d-ivkL9qn1JHW6eDKfx6-1" vertex="1">
          <mxGeometry x="768" y="762" width="65" height="65" as="geometry" />
        </mxCell>
        <mxCell id="OhhcCXmK_54rwxiTTY_5-22" value="" style="rounded=1;whiteSpace=wrap;html=1;aspect=fixed;strokeWidth=2;fillColor=#4D4D4D;strokeColor=default;" parent="d-ivkL9qn1JHW6eDKfx6-1" vertex="1">
          <mxGeometry x="856" y="762" width="65" height="65" as="geometry" />
        </mxCell>
        <mxCell id="OhhcCXmK_54rwxiTTY_5-23" value="" style="rounded=1;whiteSpace=wrap;html=1;aspect=fixed;strokeWidth=2;fillColor=#333333;strokeColor=default;" parent="d-ivkL9qn1JHW6eDKfx6-1" vertex="1">
          <mxGeometry x="944" y="762" width="65" height="65" as="geometry" />
        </mxCell>
        <mxCell id="OhhcCXmK_54rwxiTTY_5-24" value="" style="rounded=1;whiteSpace=wrap;html=1;aspect=fixed;strokeWidth=2;fillColor=#333333;strokeColor=default;" parent="d-ivkL9qn1JHW6eDKfx6-1" vertex="1">
          <mxGeometry x="327" y="850" width="65" height="65" as="geometry" />
        </mxCell>
        <mxCell id="OhhcCXmK_54rwxiTTY_5-25" value="" style="rounded=1;whiteSpace=wrap;html=1;aspect=fixed;strokeWidth=2;fillColor=#4D4D4D;strokeColor=default;" parent="d-ivkL9qn1JHW6eDKfx6-1" vertex="1">
          <mxGeometry x="415" y="850" width="65" height="65" as="geometry" />
        </mxCell>
        <mxCell id="OhhcCXmK_54rwxiTTY_5-26" value="" style="rounded=1;whiteSpace=wrap;html=1;aspect=fixed;strokeWidth=2;fillColor=#333333;strokeColor=default;" parent="d-ivkL9qn1JHW6eDKfx6-1" vertex="1">
          <mxGeometry x="503" y="850" width="65" height="65" as="geometry" />
        </mxCell>
        <mxCell id="OhhcCXmK_54rwxiTTY_5-27" value="" style="rounded=1;whiteSpace=wrap;html=1;aspect=fixed;strokeWidth=2;fillColor=#B3B3B3;strokeColor=default;" parent="d-ivkL9qn1JHW6eDKfx6-1" vertex="1">
          <mxGeometry x="591" y="850" width="65" height="65" as="geometry" />
        </mxCell>
        <mxCell id="OhhcCXmK_54rwxiTTY_5-28" value="" style="rounded=1;whiteSpace=wrap;html=1;aspect=fixed;strokeWidth=2;fillColor=#333333;strokeColor=default;" parent="d-ivkL9qn1JHW6eDKfx6-1" vertex="1">
          <mxGeometry x="680" y="850" width="65" height="65" as="geometry" />
        </mxCell>
        <mxCell id="OhhcCXmK_54rwxiTTY_5-29" value="" style="rounded=1;whiteSpace=wrap;html=1;aspect=fixed;strokeWidth=2;fillColor=#333333;strokeColor=default;" parent="d-ivkL9qn1JHW6eDKfx6-1" vertex="1">
          <mxGeometry x="768" y="850" width="65" height="65" as="geometry" />
        </mxCell>
        <mxCell id="OhhcCXmK_54rwxiTTY_5-30" value="" style="rounded=1;whiteSpace=wrap;html=1;aspect=fixed;strokeWidth=2;fillColor=#333333;strokeColor=default;" parent="d-ivkL9qn1JHW6eDKfx6-1" vertex="1">
          <mxGeometry x="856" y="850" width="65" height="65" as="geometry" />
        </mxCell>
        <mxCell id="OhhcCXmK_54rwxiTTY_5-31" value="" style="rounded=1;whiteSpace=wrap;html=1;aspect=fixed;strokeWidth=2;fillColor=#333333;strokeColor=default;" parent="d-ivkL9qn1JHW6eDKfx6-1" vertex="1">
          <mxGeometry x="944" y="850" width="65" height="65" as="geometry" />
        </mxCell>
        <mxCell id="OhhcCXmK_54rwxiTTY_5-32" value="rate" style="text;html=1;align=right;verticalAlign=middle;whiteSpace=wrap;rounded=0;fontSize=30;fontFamily=Roboto Mono;fontSource=https%3A%2F%2Ffonts.googleapis.com%2Fcss%3Ffamily%3DRoboto%2BMono;fontColor=#FFFFFF;strokeWidth=2;" parent="d-ivkL9qn1JHW6eDKfx6-1" vertex="1">
          <mxGeometry x="35" y="736" width="98" height="46" as="geometry" />
        </mxCell>
        <mxCell id="OhhcCXmK_54rwxiTTY_5-33" value="" style="endArrow=classic;html=1;rounded=0;strokeWidth=4;strokeColor=#FFFFFF;fontColor=#FFFFFF;" parent="d-ivkL9qn1JHW6eDKfx6-1" edge="1">
          <mxGeometry width="50" height="50" relative="1" as="geometry">
            <mxPoint x="143.00207547169805" y="762" as="sourcePoint" />
            <mxPoint x="269" y="762" as="targetPoint" />
          </mxGeometry>
        </mxCell>
        <mxCell id="OhhcCXmK_54rwxiTTY_5-34" value="" style="endArrow=classic;html=1;rounded=0;strokeWidth=4;strokeColor=#FFFFFF;" parent="d-ivkL9qn1JHW6eDKfx6-1" edge="1">
          <mxGeometry width="50" height="50" relative="1" as="geometry">
            <mxPoint x="802" y="978" as="sourcePoint" />
            <mxPoint x="802" y="840" as="targetPoint" />
          </mxGeometry>
        </mxCell>
        <mxCell id="OhhcCXmK_54rwxiTTY_5-35" value="" style="endArrow=classic;html=1;rounded=0;strokeWidth=4;strokeColor=#FFFFFF;" parent="d-ivkL9qn1JHW6eDKfx6-1" edge="1">
          <mxGeometry width="50" height="50" relative="1" as="geometry">
            <mxPoint x="622" y="1048" as="sourcePoint" />
            <mxPoint x="622" y="926" as="targetPoint" />
          </mxGeometry>
        </mxCell>
        <mxCell id="OhhcCXmK_54rwxiTTY_5-36" value="rate = -1.5" style="text;html=1;align=center;verticalAlign=middle;whiteSpace=wrap;rounded=0;fontSize=30;fontFamily=Roboto Mono;fontSource=https%3A%2F%2Ffonts.googleapis.com%2Fcss%3Ffamily%3DRoboto%2BMono;fontColor=#FFFFFF;strokeWidth=2;" parent="d-ivkL9qn1JHW6eDKfx6-1" vertex="1">
          <mxGeometry x="686" y="984" width="232" height="48" as="geometry" />
        </mxCell>
        <mxCell id="OhhcCXmK_54rwxiTTY_5-37" value="rate = 2" style="text;html=1;align=center;verticalAlign=middle;whiteSpace=wrap;rounded=0;fontSize=30;fontFamily=Roboto Mono;fontSource=https%3A%2F%2Ffonts.googleapis.com%2Fcss%3Ffamily%3DRoboto%2BMono;fontColor=#FFFFFF;strokeWidth=2;" parent="d-ivkL9qn1JHW6eDKfx6-1" vertex="1">
          <mxGeometry x="530" y="1050" width="182" height="48" as="geometry" />
        </mxCell>
        <mxCell id="_X5lX_v6vfH3yqMWu5yZ-2" value="" style="endArrow=none;html=1;rounded=0;strokeWidth=2;strokeColor=#FFFFFF;fontColor=#FFFFFF;" parent="d-ivkL9qn1JHW6eDKfx6-1" edge="1">
          <mxGeometry width="50" height="50" relative="1" as="geometry">
            <mxPoint x="270" y="573" as="sourcePoint" />
            <mxPoint x="270" y="234" as="targetPoint" />
          </mxGeometry>
        </mxCell>
        <mxCell id="_X5lX_v6vfH3yqMWu5yZ-3" value="" style="endArrow=none;html=1;rounded=0;strokeWidth=2;strokeColor=#FFFFFF;fontColor=#FFFFFF;" parent="d-ivkL9qn1JHW6eDKfx6-1" edge="1">
          <mxGeometry width="50" height="50" relative="1" as="geometry">
            <mxPoint x="270" y="927" as="sourcePoint" />
            <mxPoint x="270" y="588" as="targetPoint" />
          </mxGeometry>
        </mxCell>
        <mxCell id="E9Q4-2IkDxsZWF_eYJeC-0" value="" style="endArrow=classic;html=1;rounded=0;strokeWidth=4;strokeColor=#FFFFFF;fontColor=#FFFFFF;" parent="d-ivkL9qn1JHW6eDKfx6-1" edge="1">
          <mxGeometry width="50" height="50" relative="1" as="geometry">
            <mxPoint x="158" y="406" as="sourcePoint" />
            <mxPoint x="259" y="406" as="targetPoint" />
          </mxGeometry>
        </mxCell>
      </root>
    </mxGraphModel>
  </diagram>
</mxfile>
